<?xml version="1.0" encoding="UTF-8"?>
<svg id="Layer_2" data-name="Layer 2" xmlns="http://www.w3.org/2000/svg" viewBox="0 0 243.39 227.85">
  <defs>
    <style>
      .cls-1 {
        fill: #231f20;
      }
    </style>
  </defs>
  <path class="cls-1" d="M128.28,119.6V30.61l-72.6,40.4s-4.1-27.81,21.66-50.35C96.35,4.02,122.36,3.96,134.7,5.08c4.7.42,9.27,1.54,13.62,3.37,12.77,5.38,39.68,20.2,39.68,49.68v95.43l-59.72-33.96Z"/>
  <path class="cls-1" d="M122.41,133.72l77.66,43.45.19-83.08s26.27,10,33.36,43.49c5.23,24.7-7.42,47.44-14.41,57.66-2.66,3.89-5.87,7.34-9.59,10.24-10.92,8.52-37,24.77-62.73,10.37-33.72-18.87-83.28-46.59-83.28-46.59l58.79-35.54Z"/>
  <path class="cls-1" d="M114.22,120.6l-77.49,48.66,69.94,39.74s-22.43,15.63-54.59,3.92c-23.73-8.64-36.32-31.4-41.29-42.75-1.89-4.32-3.12-8.86-3.61-13.55-1.44-13.78-1.42-44.5,24.4-58.71,33.86-18.62,83.62-46,83.62-46l-.97,68.69Z"/>
</svg>