<?xml version="1.0" encoding="UTF-8"?>
<svg id="Layer_2" data-name="Layer 2" xmlns="http://www.w3.org/2000/svg" viewBox="0 0 322.63 341.6">
  <defs>
    <style>
      .cls-1 {
        fill: #f56923;
      }

      .cls-2 {
        fill: #fff;
      }

      .cls-3 {
        fill: none;
      }
    </style>
  </defs>
  <path class="cls-1" d="M295.74,126.16l6.69-120.35c.26-4.74-5.2-7.56-8.91-4.6l-79.74,63.58c-1.35,1.08-3.14,1.47-4.81,1.03-7.09-1.85-24.47-5.58-48.68-5.29-24.17-.28-41.52,3.44-48.6,5.29-1.67.44-3.46.05-4.81-1.03L27.12,1.21c-3.71-2.96-9.18-.14-8.91,4.6l6.69,120.35c.05.99-.15,1.96-.61,2.84C20.34,136.55.97,174.8,0,199.44c-.08,2.11,1.03,4.07,2.89,5.07,12.86,6.89,65.27,35.94,89.78,64.86,28.06,33.11,35.11,51.74,35.11,51.74,0,0,8.55,20.53,32.53,20.53h0c23.99,0,32.53-20.53,32.53-20.53,0,0,7.05-18.63,35.11-51.74,24.51-28.92,76.91-57.97,89.78-64.86,1.86-.99,2.97-2.96,2.89-5.07-.97-24.65-20.34-62.9-24.28-70.44-.46-.88-.67-1.85-.61-2.84Z"/>
  <g>
    <path class="cls-3" d="M16.92,184.9c3.16-24.78,24.19-59.79,24.19-59.79L32.7,14.67l75.39,59.25c3.8-1.15,27.23-7.64,52.2-7.34,25.01-.31,45.1,6.45,48.91,7.6l78.09-59.22-6.23,109.14s20.2,35.9,23.18,60.83"/>
    <path class="cls-3" d="M16.92,184.91s0,0,0,0"/>
    <path class="cls-2" d="M304.24,184.94c-27.78-26.63-75.2-13.42-75.2-13.42,0,0-21.9,5.43-37.21,32.56-15.31,27.14-10.87,84.55-10.87,84.55-23.56-8.66-40.74-.05-40.74-.05,0,0,4.44-57.41-10.87-84.55-15.31-27.14-37.21-32.56-37.21-32.56,0,0-47.44-13.22-75.22,13.43-.32,2.52-.46,4.93-.37,7.19,0,0,58.61,34.02,83.58,64.07,24.97,30.05,31.24,46.97,31.24,46.97,0,0,7.6,25.99,28.94,25.99h0c21.35,0,28.95-25.99,28.95-25.99,0,0,6.27-16.92,31.24-46.97,24.97-30.05,84.06-64.07,84.06-64.07.09-2.24-.04-4.64-.34-7.16Z"/>
    <path class="cls-3" d="M304.24,184.94s.01.01.02.02"/>
  </g>
  <ellipse class="cls-1" cx="96.59" cy="204.74" rx="9.23" ry="18.3" transform="translate(-129.01 186.02) rotate(-60)"/>
  <ellipse class="cls-1" cx="223.81" cy="204.71" rx="18.3" ry="9.23" transform="translate(-72.37 139.33) rotate(-30)"/>
  <path d="M163.85,313.3l12.76-15.72c2.23-2.75.28-6.86-3.27-6.86h-25.53c-3.54,0-5.5,4.11-3.27,6.86l12.76,15.72c1.68,2.07,4.85,2.07,6.53,0Z"/>
  <path class="cls-2" d="M86.56,72.79c-24.77,9.42-42.52,29.25-42.52,29.25l-7.02-70.73,49.54,41.48Z"/>
  <path class="cls-2" d="M236.56,72.79c24.77,9.42,42.52,29.25,42.52,29.25l7.02-70.73-49.54,41.48Z"/>
</svg>